<svg xmlns="http://www.w3.org/2000/svg" viewBox="0 0 512 512" id="cake">
  <rect width="465.27" height="279.13" x="23.37" y="219.92" fill="#492028" rx="19.12"></rect>
  <path fill="#2d1117" d="M488.64,239V479.93a19.12,19.12,0,0,1-19.12,19.12h-427a19.12,19.12,0,0,1-19.12-19.12v-20H437.3a10.81,10.81,0,0,0,10.8-10.81V219.92h21.42A19.12,19.12,0,0,1,488.64,239Z"></path>
  <rect width="465.27" height="123.24" x="23.37" y="219.92" fill="#ff83c1"></rect>
  <rect width="465.27" height="43.17" x="23.37" y="395.11" fill="#fcd0c7"></rect>
  <path fill="#ff83c1" d="M333,153.83a182.07,182.07,0,0,1-32.83,26.47A219.3,219.3,0,0,1,256,201.66a219,219,0,0,1-44.33-21.46A182.4,182.4,0,0,1,179,153.83c-31.57-32.35-43.06-70.32-37.47-97.24a51.9,51.9,0,0,1,4-12.09A47.56,47.56,0,0,1,156,30.21c20.37-19,61.23-30.21,100,9.69C294.73,0,335.59,11.18,356,30.21a47.76,47.76,0,0,1,10.5,14.29,51.88,51.88,0,0,1,4,12.09C376.07,83.5,364.59,121.47,333,153.83Z"></path>
  <path fill="#ff4f98" d="M333,153.83a182.07,182.07,0,0,1-32.83,26.47A219.3,219.3,0,0,1,256,201.66a219,219,0,0,1-44.33-21.46A182.4,182.4,0,0,1,179,153.83c-31.57-32.35-43.06-70.32-37.47-97.24.17-.83.36-1.66.58-2.47,4.4,21.15,16.43,44.47,36.89,65.44a182,182,0,0,0,32.68,26.37l.46.3a82.12,82.12,0,0,0,87.67.05l.38-.24A182.11,182.11,0,0,0,333,119.56c20.47-21,32.49-44.3,36.9-65.45.21.82.4,1.64.57,2.48C376.07,83.5,364.59,121.47,333,153.83Z"></path>
  <path fill="#ff4f98" d="M226.85,146.85A88,88,0,0,1,217.73,165a105.4,105.4,0,0,1-15.11,18.14,104.9,104.9,0,0,1-23.7-.59,87.45,87.45,0,0,1-19.56-5.06c-20.26-7.89-32.85-22.25-35.75-35.15a25.38,25.38,0,0,1-.64-6.1,23,23,0,0,1,1.76-8.35c5.14-12.39,20.82-25.41,45.73-15.62,9-25.19,29.16-28.41,41.87-24.12a22.77,22.77,0,0,1,7.44,4.17,25,25,0,0,1,4.17,4.5C231.74,107.47,234.25,126.39,226.85,146.85Z"></path>
  <path fill="#f7176d" d="M226.85,146.85A88,88,0,0,1,217.73,165a105,105,0,0,1-15.12,18.14,104.81,104.81,0,0,1-23.69-.59,87.85,87.85,0,0,1-19.56-5.05c-20.26-7.9-32.85-22.26-35.75-35.16q-.14-.6-.24-1.2c6.14,8.39,16,16.22,29.18,21.34a87.31,87.31,0,0,0,19.56,5.06l.26,0a39.52,39.52,0,0,0,38.43-17.41.94.94,0,0,1,.12-.18A87.78,87.78,0,0,0,220,131.83c4.8-13.26,5.43-25.87,3.15-36,.26.32.51.64.75,1C231.74,107.47,234.25,126.39,226.85,146.85Z"></path>
  <path fill="#ff4f98" d="M284.81,146.85A87,87,0,0,0,293.93,165,105.4,105.4,0,0,0,309,183.11a104.81,104.81,0,0,0,23.69-.59,87.31,87.31,0,0,0,19.56-5.06c20.27-7.89,32.85-22.25,35.75-35.15a24.88,24.88,0,0,0,.64-6.1,22.78,22.78,0,0,0-1.76-8.35c-5.14-12.39-20.82-25.41-45.72-15.62-9-25.19-29.17-28.41-41.88-24.12a23,23,0,0,0-7.44,4.17,25,25,0,0,0-4.16,4.5C279.92,107.47,277.4,126.39,284.81,146.85Z"></path>
  <path fill="#f7176d" d="M284.8,146.85A87.53,87.53,0,0,0,293.93,165,105.4,105.4,0,0,0,309,183.11a104.81,104.81,0,0,0,23.69-.59,87.85,87.85,0,0,0,19.56-5.05c20.27-7.9,32.85-22.26,35.75-35.16q.13-.6.24-1.2c-6.13,8.39-16,16.22-29.18,21.34a87.17,87.17,0,0,1-19.56,5.06l-.26,0a39.51,39.51,0,0,1-38.42-17.41l-.12-.18a87.29,87.29,0,0,1-9.12-18.13c-4.8-13.26-5.43-25.87-3.16-36-.26.32-.5.64-.74,1C279.92,107.47,277.4,126.39,284.8,146.85Z"></path>
  <path fill="#fcd0c7" d="M512,231.3v86.14A25.6,25.6,0,0,1,486.4,343h0a25.6,25.6,0,0,1-25.6-25.6V267.81a25.6,25.6,0,0,0-25.6-25.6h0a25.6,25.6,0,0,0-25.6,25.6v101.7a25.6,25.6,0,0,1-25.6,25.6h0a25.6,25.6,0,0,1-25.6-25.6v-1.16a25.6,25.6,0,0,0-25.6-25.6h0a25.6,25.6,0,0,1-25.6-25.6V285.83a25.6,25.6,0,0,0-25.6-25.6h0a25.6,25.6,0,0,0-25.6,25.6h0a25.3,25.3,0,0,1-25.3,25.3h-.3a25.6,25.6,0,0,1-25.6-25.6h0a25.6,25.6,0,0,0-25.6-25.6h0a25.6,25.6,0,0,0-25.6,25.6v31.91A25.6,25.6,0,0,1,128,343h0a25.6,25.6,0,0,1-25.6-25.6V297.09a25.6,25.6,0,0,0-25.6-25.6h0a25.6,25.6,0,0,0-25.6,25.6v20.35A25.6,25.6,0,0,1,25.6,343h0A25.6,25.6,0,0,1,0,317.44V231.3a54.47,54.47,0,0,1,54.47-54.47H457.53A54.47,54.47,0,0,1,512,231.3Z"></path>
  <path fill="#f4b8ae" d="M51.2 303v14.48a25.6 25.6 0 01-51.2 0V303a25.6 25.6 0 1051.2 0zM102.4 297.09a25.6 25.6 0 00-51.2 0V282.61a25.6 25.6 0 0151.2 0zM153.6 303v14.48a25.6 25.6 0 01-51.2 0V303a25.6 25.6 0 1051.2 0zM307.2 285.83a25.6 25.6 0 00-51.2 0 25.3 25.3 0 01-25.3 25.3h-.3a25.6 25.6 0 01-25.6-25.6 25.6 25.6 0 00-51.2 0V271.05a25.6 25.6 0 0151.2 0 25.6 25.6 0 0025.6 25.6h.3a25.3 25.3 0 0025.3-25.3 25.6 25.6 0 1151.2 0zM409.6 355v14.48a25.6 25.6 0 01-51.2 0v-1.16a25.6 25.6 0 00-25.6-25.6 25.61 25.61 0 01-25.6-25.6V302.67a25.61 25.61 0 0025.6 25.6 25.6 25.6 0 0125.6 25.6V355a25.6 25.6 0 0051.2 0zM460.8 267.81a25.6 25.6 0 00-51.2 0V253.33a25.6 25.6 0 0151.2 0zM512 303v14.48a25.6 25.6 0 01-51.2 0V303a25.6 25.6 0 0051.2 0z"></path>
</svg>